<?xml version="1.0" encoding="utf-8"?>
<svg fill="none" height="32" viewBox="0 0 157 32" width="157" xmlns="http://www.w3.org/2000/svg" xmlns:bx="https://boxy-svg.com">
  <linearGradient id="a" gradientUnits="userSpaceOnUse" x1="117.438" x2="117.438" y1="-5.6" y2="36.8" gradientTransform="matrix(0.999999, -0.001407, 0.001573, 1.117975, 0.008926, 0.82591)">
    <stop offset="0" style="stop-color: rgb(227, 218, 182);"/>
    <stop offset="0.219" style="stop-color: rgb(184, 177, 31);"/>
    <stop offset="1" style="stop-color: rgb(159, 107, 29);"/>
  </linearGradient>
  <rect fill="url(#a)" height="32" rx="4" width="157"/>
  <path d="m32 0h1v32h-1z" style="fill: rgb(221, 200, 169);"/>
  <path d="M 16.651 15.486 Q 16.883 15.344 17.181 15.371 Q 17.513 15.402 17.791 15.631 Q 18.097 15.885 18.223 16.289 Q 18.361 16.732 18.235 17.203 Q 18.098 17.715 17.694 18.095 Q 17.259 18.504 16.651 18.631 Q 16.001 18.767 15.352 18.539 Q 14.661 18.297 14.179 17.716 Q 13.668 17.102 13.54 16.289 Q 13.405 15.432 13.734 14.605 Q 14.081 13.736 14.839 13.15 Q 15.633 12.537 16.651 12.408 Q 17.714 12.274 18.72 12.706 Q 19.767 13.156 20.456 14.092 Q 21.172 15.065 21.301 16.289 Q 21.435 17.558 20.9 18.742 Q 20.347 19.968 19.233 20.76 Q 18.081 21.579 16.651 21.708 Q 15.176 21.842 13.813 21.205 Q 12.409 20.548 11.513 19.255 Q 10.592 17.925 10.462 16.289 Q 10.329 14.607 11.069 13.066 Q 11.829 11.484 13.3 10.485 Q 14.809 9.46 16.651 9.331 Q 18.539 9.198 20.258 10.041 Q 22.019 10.904 23.121 12.553 Q 24.249 14.241 24.379 16.289 Q 24.511 18.383 23.566 20.281 Q 22.599 22.22 20.771 23.426 Q 18.905 24.656 16.651 24.786 Q 14.351 24.919 12.274 23.87 Q 10.156 22.8 8.848 20.794 Q 7.514 18.749 7.384 16.289 Q 7.252 13.783 8.404 11.527 Q 9.577 9.231 11.761 7.82 Q 13.985 6.383 16.651 6.253 Q 16.658 6.253 16.651 6.253" style="stroke-width: 2px; stroke-linecap: round; stroke-opacity: 0.91; fill: rgba(195, 166, 166, 0); stroke: rgb(255, 255, 255);" bx:shape="spiral 16.651 16.289 0.803 10.036 0 1080 1@0a211205"/>
  <path d="M 42.728 11.041 L 44.197 11.041 L 44.197 19.296 L 46.94 19.296 L 46.94 20.596 L 42.728 20.596 Z M 50.891 20.726 Q 50.085 20.726 49.403 20.343 Q 48.72 19.959 48.311 19.251 Q 47.901 18.542 47.901 17.593 Q 47.901 16.657 48.259 15.955 Q 48.616 15.253 49.279 14.863 Q 49.942 14.473 50.839 14.473 Q 51.359 14.473 51.814 14.655 Q 52.269 14.837 52.581 15.104 Q 52.893 15.37 52.997 15.63 L 53.023 14.629 L 54.362 14.629 L 54.362 20.596 L 53.036 20.596 L 53.01 19.543 Q 52.789 20.011 52.204 20.369 Q 51.619 20.726 50.891 20.726 Z M 51.125 19.556 Q 51.866 19.556 52.373 19.043 Q 52.88 18.529 52.88 17.697 L 52.88 17.606 Q 52.88 17.047 52.646 16.605 Q 52.412 16.163 52.009 15.916 Q 51.606 15.669 51.125 15.669 Q 50.293 15.669 49.838 16.209 Q 49.383 16.748 49.383 17.606 Q 49.383 18.477 49.832 19.017 Q 50.28 19.556 51.125 19.556 Z M 58.314 20.726 Q 57.079 20.726 56.618 19.998 Q 56.156 19.27 56.156 17.97 L 56.156 14.629 L 57.56 14.629 L 57.56 17.619 Q 57.56 18.36 57.645 18.77 Q 57.729 19.179 57.983 19.374 Q 58.236 19.569 58.743 19.569 Q 59.107 19.569 59.445 19.361 Q 59.783 19.153 59.998 18.796 Q 60.212 18.438 60.212 18.009 L 60.212 14.629 L 61.603 14.629 L 61.603 20.596 L 60.459 20.596 L 60.303 19.725 Q 59.978 20.232 59.491 20.479 Q 59.003 20.726 58.314 20.726 Z M 66.256 20.726 Q 65.372 20.726 64.663 20.343 Q 63.955 19.959 63.539 19.238 Q 63.123 18.516 63.123 17.541 Q 63.123 16.618 63.506 15.923 Q 63.89 15.227 64.585 14.85 Q 65.281 14.473 66.191 14.473 Q 66.88 14.473 67.38 14.649 Q 67.881 14.824 68.167 15.084 L 67.543 16.215 Q 66.997 15.669 66.308 15.669 Q 65.476 15.669 65.04 16.176 Q 64.605 16.683 64.605 17.528 Q 64.605 18.49 65.053 19.023 Q 65.502 19.556 66.308 19.556 Q 66.711 19.556 67.094 19.439 Q 67.478 19.322 67.686 19.166 L 68.193 20.154 Q 67.907 20.375 67.393 20.551 Q 66.88 20.726 66.256 20.726 Z M 69.597 11.041 L 70.962 11.041 L 70.962 14.629 L 70.91 15.734 Q 71.157 15.188 71.703 14.831 Q 72.249 14.473 72.977 14.473 Q 73.9 14.473 74.394 14.857 Q 74.888 15.24 75.057 15.929 Q 75.226 16.618 75.226 17.723 L 75.226 20.596 L 73.835 20.596 L 73.835 17.71 Q 73.835 16.956 73.751 16.527 Q 73.666 16.098 73.413 15.877 Q 73.159 15.656 72.678 15.656 Q 72.288 15.656 71.892 15.89 Q 71.495 16.124 71.235 16.573 Q 70.975 17.021 70.975 17.632 L 70.975 20.596 L 69.597 20.596 Z M 83.831 17.281 L 82.063 20.596 L 81.816 20.596 L 79.307 14.629 L 80.815 14.629 L 82.102 18.1 L 83.805 14.629 L 83.857 14.629 L 85.573 18.074 L 86.86 14.629 L 88.342 14.629 L 85.846 20.596 L 85.599 20.596 Z M 91.969 20.726 Q 90.903 20.726 90.188 20.304 Q 89.473 19.881 89.135 19.173 Q 88.797 18.464 88.797 17.619 Q 88.797 16.67 89.194 15.955 Q 89.59 15.24 90.292 14.857 Q 90.994 14.473 91.878 14.473 Q 93.256 14.473 93.926 15.234 Q 94.595 15.994 94.595 17.372 Q 94.595 17.723 94.556 18.1 L 90.266 18.1 Q 90.409 18.893 90.832 19.244 Q 91.254 19.595 92.008 19.595 Q 92.632 19.595 93.035 19.491 Q 93.438 19.387 93.776 19.205 L 94.205 20.206 Q 93.88 20.414 93.321 20.57 Q 92.762 20.726 91.969 20.726 Z M 93.23 17.125 Q 93.243 16.319 92.879 15.988 Q 92.515 15.656 91.839 15.656 Q 90.474 15.656 90.266 17.125 Z M 99.599 20.726 Q 98.871 20.726 98.293 20.369 Q 97.714 20.011 97.493 19.543 L 97.467 20.596 L 96.115 20.596 L 96.115 11.041 L 97.493 11.041 L 97.493 14.72 L 97.428 15.734 Q 97.649 15.214 98.293 14.844 Q 98.936 14.473 99.69 14.473 Q 100.574 14.473 101.231 14.87 Q 101.887 15.266 102.238 15.975 Q 102.589 16.683 102.589 17.619 Q 102.589 18.568 102.18 19.27 Q 101.77 19.972 101.088 20.349 Q 100.405 20.726 99.599 20.726 Z M 99.365 19.556 Q 100.21 19.556 100.665 19.017 Q 101.12 18.477 101.12 17.619 Q 101.12 16.748 100.672 16.209 Q 100.223 15.669 99.365 15.669 Q 98.624 15.669 98.117 16.183 Q 97.61 16.696 97.61 17.528 L 97.61 17.619 Q 97.61 18.178 97.851 18.62 Q 98.091 19.062 98.488 19.309 Q 98.884 19.556 99.365 19.556 Z M 109.908 20.726 Q 109.102 20.726 108.42 20.343 Q 107.737 19.959 107.328 19.251 Q 106.918 18.542 106.918 17.593 Q 106.918 16.657 107.276 15.955 Q 107.633 15.253 108.296 14.863 Q 108.959 14.473 109.856 14.473 Q 110.376 14.473 110.831 14.655 Q 111.286 14.837 111.598 15.104 Q 111.91 15.37 112.014 15.63 L 112.04 14.629 L 113.379 14.629 L 113.379 20.596 L 112.053 20.596 L 112.027 19.543 Q 111.806 20.011 111.221 20.369 Q 110.636 20.726 109.908 20.726 Z M 110.142 19.556 Q 110.883 19.556 111.39 19.043 Q 111.897 18.529 111.897 17.697 L 111.897 17.606 Q 111.897 17.047 111.663 16.605 Q 111.429 16.163 111.026 15.916 Q 110.623 15.669 110.142 15.669 Q 109.31 15.669 108.855 16.209 Q 108.4 16.748 108.4 17.606 Q 108.4 18.477 108.849 19.017 Q 109.297 19.556 110.142 19.556 Z M 115.289 14.629 L 116.641 14.629 L 116.641 15.734 Q 117.356 14.473 118.877 14.473 Q 120.138 14.473 120.918 15.273 Q 121.698 16.072 121.698 17.58 Q 121.698 18.516 121.314 19.231 Q 120.931 19.946 120.274 20.336 Q 119.618 20.726 118.812 20.726 Q 118.058 20.726 117.505 20.46 Q 116.953 20.193 116.641 19.699 L 116.654 23.755 L 115.289 23.755 Z M 118.487 19.543 Q 119.332 19.543 119.787 19.004 Q 120.242 18.464 120.242 17.619 Q 120.242 16.735 119.793 16.209 Q 119.345 15.682 118.487 15.682 Q 118.019 15.682 117.609 15.91 Q 117.2 16.137 116.959 16.56 Q 116.719 16.982 116.719 17.541 L 116.719 17.632 Q 116.719 18.191 116.959 18.627 Q 117.2 19.062 117.603 19.303 Q 118.006 19.543 118.487 19.543 Z M 123.218 14.629 L 124.57 14.629 L 124.57 15.734 Q 125.285 14.473 126.806 14.473 Q 128.067 14.473 128.847 15.273 Q 129.627 16.072 129.627 17.58 Q 129.627 18.516 129.244 19.231 Q 128.86 19.946 128.204 20.336 Q 127.547 20.726 126.741 20.726 Q 125.987 20.726 125.435 20.46 Q 124.882 20.193 124.57 19.699 L 124.583 23.755 L 123.218 23.755 Z M 126.416 19.543 Q 127.261 19.543 127.716 19.004 Q 128.171 18.464 128.171 17.619 Q 128.171 16.735 127.723 16.209 Q 127.274 15.682 126.416 15.682 Q 125.948 15.682 125.539 15.91 Q 125.129 16.137 124.889 16.56 Q 124.648 16.982 124.648 17.541 L 124.648 17.632 Q 124.648 18.191 124.889 18.627 Q 125.129 19.062 125.532 19.303 Q 125.935 19.543 126.416 19.543 Z M 134.464 10.729 L 136.128 10.729 L 135.881 17.203 L 134.711 17.203 Z M 135.27 20.739 Q 134.88 20.739 134.607 20.473 Q 134.334 20.206 134.334 19.803 Q 134.334 19.413 134.6 19.14 Q 134.867 18.867 135.27 18.867 Q 135.673 18.867 135.939 19.14 Q 136.206 19.413 136.206 19.803 Q 136.206 20.206 135.939 20.473 Q 135.673 20.739 135.27 20.739 Z" style="fill: rgb(255, 255, 255); white-space: pre;"/>
</svg>