<?xml version="1.0" encoding="utf-8"?>
<svg viewBox="61.899 13.315 387.545 125.782" width="193" height="63" xmlns="http://www.w3.org/2000/svg">
  <defs>
    <linearGradient gradientUnits="userSpaceOnUse" x1="255.671" y1="13.315" x2="255.671" y2="139.097" id="gradient-0">
      <stop offset="0" style="stop-color: rgb(85, 105, 218);"/>
      <stop offset="1" style="stop-color: rgb(246, 223, 241);"/>
    </linearGradient>
    <linearGradient gradientUnits="userSpaceOnUse" x1="255.671" y1="13.315" x2="255.671" y2="139.097" id="gradient-1">
      <stop offset="0" style="stop-color: rgba(97, 97, 97, 1)"/>
      <stop offset="1" style="stop-color: rgba(46, 46, 46, 1)"/>
    </linearGradient>
    <linearGradient x1="48.6792116%" y1="-2.76243093e-06%" x2="48.6792116%" y2="99.3922613%" id="linearGradient-1">
      <stop stop-color="#E459FF" offset="0"/>
      <stop stop-color="#914DFF" offset="1"/>
    </linearGradient>
    <linearGradient x1="23.626192%" y1="46.6452578%" x2="65.8107837%" y2="51.3879731%" id="linearGradient-2">
      <stop stop-color="#F0A5FF" offset="0"/>
      <stop stop-color="#FF676B" offset="1"/>
    </linearGradient>
    <linearGradient x1="50.0000024%" y1="-2.19178973%" x2="50.0000024%" y2="103.082188%" id="linearGradient-3">
      <stop stop-color="#6E3BFF" offset="0"/>
      <stop stop-color="#3633FF" offset="1"/>
    </linearGradient>
    <linearGradient x1="40.569621%" y1="47.6721552%" x2="57.9619703%" y2="52.1491478%" id="linearGradient-4">
      <stop stop-color="#F0A5FF" offset="0"/>
      <stop stop-color="#FF676B" offset="1"/>
    </linearGradient>
  </defs>
  <g transform="matrix(1, 0, 0, 1, 0, -3.552713678800501e-15)">
    <g>
      <g>
        <rect x="61.899" y="13.315" width="387.545" height="125.782" style="fill: url('#gradient-0'); stroke-width: 8px; stroke: url('#gradient-1'); stroke-opacity: 0.49;" rx="28.584" ry="28.584"/>
        <g transform="matrix(0.625067, 0, 0, 0.625067, 95.46972, 26.912835)" style="">
          <g stroke="none" stroke-width="1" fill="none" fill-rule="evenodd">
            <path d="M60.0443953,12.7970126 C41.3638781,9.04530303 -2.557966,28.1690338 0.11692175,49.627439 L0.11692175,49.627439 C6.76200462,51.6031729 12.5487513,54.0189992 11.6030208,56.4941287 L11.6030208,56.4941287 L194.391179,56.4941287 C195.489849,49.1748617 189.7468,43.5629035 193.632722,37.4546709 L193.632722,37.4546709 C194.859362,35.5257554 195.792608,33.3252935 196.441822,31.131074 L196.441822,31.131074 L196.441822,19.2548221 C196.345064,19.1674279 196.238942,19.0925185 196.126578,19.0363365 L196.126578,19.0363365 C150.73776,33.72481 172.779834,30.6191935 124.338459,19.042579 L124.338459,19.042579 C115.933007,8.49284664 88.0323981,0.852093764 75.0262636,3.32664305e-14 L75.0262636,3.32664305e-14 C70.0323075,3.32664305e-14 60.0443953,12.7970126 60.0443953,12.7970126" fill="url(#linearGradient-1)"/>
            <path d="M120.283991,50.2516835 L120.283991,55.8698842 L11.7029,55.8698842 C11.8027791,57.5303746 9.05922444,59.2345621 1.67753304,60.8638403 L1.67753304,60.8638403 C8.23210046,68.979019 27.5805592,76.7789542 34.4503701,77.7184422 L34.4503701,77.7184422 C33.2206084,77.9743825 31.8566342,78.430081 30.4052657,79.0512043 L30.4052657,79.0512043 C52.3724302,81.8166075 78.3441232,82.7529742 91.2597423,83.0245206 L91.2597423,83.0245206 L133.873794,83.0245206 C133.414974,82.9215202 132.94367,82.8185199 132.456759,82.7123983 L132.456759,82.7123983 C122.977606,80.927059 126.76677,82.2161239 122.156725,79.5911758 L122.156725,79.5911758 C183.182868,64.8995811 147.825659,67.071952 196.126578,77.7184422 L196.126578,77.7184422 C197.690311,74.9093419 190.199377,68.0426522 193.632722,59.3063502 L193.632722,59.3063502 C194.937393,55.9822482 194.619028,53.0233292 193.963571,50.2516835 L193.963571,50.2516835 L120.283991,50.2516835 Z" fill="url(#linearGradient-2)"/>
            <path d="M77.835364,72.4123638 L77.835364,78.0305645 C67.6320874,77.8183213 49.9940586,77.6997149 33.3392149,77.9931098 L33.3392149,77.9931098 C22.3369053,81.1080899 2.90105229,97.712994 0.11692175,107.479299 L0.11692175,107.479299 L0.11692175,111.455737 C0.204315983,111.661738 0.307316328,111.861496 0.429044008,112.051891 L0.429044008,112.051891 C6.234518,113.777927 11.3845353,115.837934 11.9650827,117.982213 L11.9650827,117.982213 L93.7535991,117.982213 L93.7535991,112.364013 L194.035359,112.364013 C192.986629,107.713391 190.861076,103.612105 193.632722,99.254878 L193.632722,99.254878 C196.482398,93.1185544 197.818281,88.9080252 198.002433,86.1332583 L198.002433,86.1332583 L198.002433,84.9003754 C197.2034,74.5816135 174.821113,91.008608 162.420496,91.1396993 L162.420496,91.1396993 C148.374994,88.6396 151.184095,86.7699877 132.456759,82.7123983 L132.456759,82.7123983 C122.977606,80.927059 126.76677,82.2161239 122.156725,79.5911758 L122.156725,79.5911758 C133.758309,76.7976815 141.876609,74.615947 147.75075,72.9835476 L147.75075,72.9835476 L147.75075,72.4123638 L77.835364,72.4123638 Z" fill="url(#linearGradient-3)"/>
            <path d="M70.3444298,28.0910032 L70.656552,28.0910032 C78.1381226,41.3405931 73.3720157,51.5126574 69.408063,64.6093074 L69.408063,64.6093074 C68.2906653,67.2592253 72.3232849,69.3098686 73.4656524,66.4820409 L73.4656524,66.4820409 C76.6461782,54.3155153 81.6838314,40.9410766 75.6505082,28.7152477 L75.6505082,28.7152477 L76.2747527,28.7152477 C105.155425,28.9368545 134.382553,34.1805085 160.547762,46.8183387 L160.547762,46.8183387 C162.286283,47.2116127 167.879514,51.5126574 168.975063,48.0668277 L168.975063,48.0668277 C156.371566,33.1598687 107.327796,24.6701433 86.5747872,25.2787817 L86.5747872,25.2787817 C85.6727539,25.4504489 83.5128678,25.1757813 81.0439808,24.904235 L81.0439808,24.904235 C79.1088228,24.6888706 76.980149,24.4766275 75.1105366,24.4766275 L75.1105366,24.4766275 C71.6366159,24.4766275 69.070971,25.2194784 70.3444298,28.0910032 L70.3444298,28.0910032 Z" fill="#974DFF"/>
            <path d="M70.3444298,28.0910032 L70.656552,28.0910032 C75.1667187,36.6244257 76.3246922,47.0555516 71.9050411,55.8698842 L71.9050411,55.8698842 L76.2747527,55.8698842 C78.5470027,47.0149757 79.308581,37.5264591 75.3383859,29.02737 L75.3383859,29.02737 C104.562393,29.1147642 134.210886,33.8995984 160.547762,47.1304609 L160.547762,47.1304609 C162.280041,47.4363408 168.204121,52.1337807 168.975063,48.37895 L168.975063,48.37895 C155.728595,33.1910809 107.917707,24.6732645 86.5747872,25.2787817 L86.5747872,25.2787817 C85.5447837,25.4754187 83.403625,25.1882662 81.0002837,24.8979925 L81.0002837,24.8979925 C79.1462774,24.6763857 77.1330889,24.4516577 75.3571132,24.4516577 L75.3571132,24.4516577 C72.0923144,24.4516577 69.6140637,25.2038723 70.3444298,28.0910032 L70.3444298,28.0910032 Z" fill="#F1A5FF"/>
            <path d="M59.1080285,29.6516145 L59.4201507,29.6516145 C65.481565,37.9010058 65.2131399,47.8733119 61.2928843,56.8062509 L61.2928843,56.8062509 C59.9788496,58.9786218 63.2436484,61.1509928 64.4141069,58.6789845 L64.4141069,58.6789845 C66.6052051,54.0564538 68.1158769,48.8315272 68.159574,43.6971161 L68.159574,43.6971161 C68.2032711,37.9197331 65.565838,31.9613192 62.5413733,27.1546364 L62.5413733,27.1546364 C62.1449781,26.4398765 61.5706731,26.1464815 60.980762,26.1464815 L60.980762,26.1464815 C59.4700903,26.1464815 57.8876305,28.0753971 59.1080285,29.6516145 L59.1080285,29.6516145 Z" fill="#974DFF"/>
            <path d="M65.6625959,55.8701963 C67.472905,48.3168376 68.8150307,40.2859319 64.7262291,33.0852715 C64.1550454,31.9023281 62.4695852,28.4877106 62.5413733,27.1549486 C61.2398235,24.7453647 57.7752664,27.1424637 59.1080285,29.3398044 L59.4201507,29.3398044 C64.9696845,37.2645885 65.6625959,47.1401367 61.6050066,55.8701963 L65.6625959,55.8701963 Z" fill="#F1A5FF"/>
            <path d="M59.1080285,29.3394922 L59.4201507,29.3394922 C64.9665633,37.2642764 65.6625959,47.1429458 61.6050066,55.8698842 L61.6050066,55.8698842 L65.6625959,55.8698842 C67.472905,48.3165255 68.8150307,40.2856198 64.7262291,33.0849593 L64.7262291,33.0849593 C64.1550454,31.902016 62.466464,28.4873985 62.5413733,27.1546364 L62.5413733,27.1546364 C62.1543417,26.4398765 61.5800368,26.1496028 60.9963681,26.1496028 L60.9963681,26.1496028 C59.6074241,26.1496028 58.1716617,27.7944871 59.1080285,29.3394922 L59.1080285,29.3394922 Z" fill="#F1A5FF"/>
            <path d="M93.4414769,112.364013 L93.4414769,117.982213 L11.9650827,117.982213 C12.4395085,119.739462 9.83640886,121.556013 1.9896553,123.288292 L1.9896553,123.288292 C17.1057362,137.976765 35.920466,142.614902 52.5503399,138.894405 L52.5503399,138.894405 C55.1503183,150.614596 77.0456946,157.322103 91.5687433,152.627784 L91.5687433,152.627784 C91.7685016,149.628289 91.2347725,146.631916 90.008132,143.888361 L90.008132,143.888361 C110.305442,147.343554 159.839245,131.768654 162.420496,130.467104 L162.420496,130.467104 C164.758292,130.033254 171.949588,132.60202 179.100309,135.173907 L179.100309,135.173907 C187.224852,138.095372 195.296333,141.013715 196.126578,139.518649 L196.126578,139.518649 C197.690311,136.709549 190.199377,129.842859 193.632722,121.103436 L193.632722,121.103436 C194.887453,117.907304 194.640877,115.045143 194.035359,112.364013 L194.035359,112.364013 L93.4414769,112.364013 Z" fill="url(#linearGradient-4)"/>
            <path d="M70.3444298,90.5154548 L70.656552,90.5154548 C78.2099107,103.843075 73.2284394,114.14311 69.408063,127.345881 L69.408063,127.345881 C68.2906653,129.99892 72.3232849,132.046442 73.4656524,129.218615 L73.4656524,129.218615 C76.8802699,117.195665 81.5527401,103.858681 75.6505082,91.7608226 L75.6505082,91.7608226 L76.2747527,91.4518216 C105.146062,91.6859133 134.407523,96.4457777 160.547762,109.24279 L160.547762,109.24279 C162.286283,109.636064 167.879514,113.933988 168.975063,110.491279 L168.975063,110.491279 C156.371566,95.5874415 107.327796,87.0945948 86.5747872,87.7063545 L86.5747872,87.7063545 C85.6727539,87.8780217 83.5159891,87.6033541 81.0502232,87.3318078 L81.0502232,87.3318078 C79.111944,87.1164434 76.980149,86.901079 75.1105366,86.901079 L75.1105366,86.901079 C71.6366159,86.901079 69.070971,87.6470512 70.3444298,90.5154548 L70.3444298,90.5154548 Z" fill="#373FFF"/>
            <path d="M70.3444298,90.5154548 L70.656552,90.5154548 C75.1261428,98.9583619 76.321571,109.261518 71.9050411,117.982213 L71.9050411,117.982213 L76.2747527,117.982213 C78.5626088,109.130426 79.308581,99.6387884 75.3383859,91.1396993 L75.3383859,91.1396993 C104.531181,91.2395784 134.095401,96.4738687 160.547762,109.24279 L160.547762,109.24279 C162.280041,109.636064 167.885757,113.937109 168.975063,110.491279 L168.975063,110.491279 C156.374688,95.5874415 107.327796,87.0914736 86.5747872,87.7063545 L86.5747872,87.7063545 C85.6727539,87.8780217 83.5191103,87.6033541 81.0502232,87.3318078 L81.0502232,87.3318078 C79.111944,87.1164434 76.980149,86.901079 75.1105366,86.901079 L75.1105366,86.901079 C71.6366159,86.901079 69.070971,87.6470512 70.3444298,90.5154548 L70.3444298,90.5154548 Z" fill="#F1A5FF"/>
            <path d="M59.1077164,92.0766903 L59.4198386,92.0766903 C65.4812529,100.326082 65.2128277,110.298388 61.2925722,119.231327 C59.9785375,121.403698 63.2433363,123.576069 64.4137947,121.10406 C66.604893,116.48153 68.1155647,111.259724 68.1592618,106.122192 C68.2809895,100.182505 65.3158281,94.3645465 62.5410612,89.26759 C60.9991772,86.5552476 56.9884062,89.9292892 59.1077164,92.0766903" fill="#373FFF"/>
            <path d="M65.6625959,117.982213 C66.4678713,112.872772 68.3936657,107.682179 67.2232072,102.376101 C67.0671461,99.2892115 59.3296353,80.983241 58.483784,91.7639438 L59.4201507,91.7639438 C65.0227453,99.6887279 65.6688383,109.54867 61.6050066,118.294336 L65.6625959,117.982213 Z" fill="#F1A5FF"/>
            <path d="M58.483784,91.7608226 L59.4201507,91.7608226 C65.0227453,99.6887279 65.6688383,109.54867 61.6050066,118.294336 L61.6050066,118.294336 L65.6625959,117.982213 C66.4678713,112.875893 68.3936657,107.682179 67.2232072,102.376101 L67.2232072,102.376101 C67.1014795,99.9758804 62.4071608,88.3992659 59.9195464,88.3992659 L59.9195464,88.3992659 C59.2047864,88.3992659 58.6741785,89.35436 58.483784,91.7608226 L58.483784,91.7608226 Z" fill="#F1A5FF"/>
            <path d="M33.8255014,31.8361582 C38.4792442,31.8361582 42.2528023,35.6097163 42.2528023,40.2634591 C42.2528023,44.917202 38.4792442,48.6907601 33.8255014,48.6907601 C29.1717585,48.6907601 25.3982004,44.917202 25.3982004,40.2634591 C25.3982004,35.6097163 29.1717585,31.8361582 33.8255014,31.8361582" fill="#000000"/>
            <path d="M25.0867024,39.6392146 L25.0867024,39.6392146 C25.2583696,34.6421373 29.4470503,30.7312454 34.4441277,30.9060339 C39.441205,31.0777011 43.3520969,35.269503 43.1773084,40.2634591 C43.0118836,45.1356876 39.0135975,48.9997611 34.1382479,49.0028824 C29.4969899,49.3587017 25.445643,45.884781 25.0898236,41.2466443 C25.0867024,41.2310381 25.0867024,41.215432 25.0867024,41.1998259 C25.5736131,44.7018377 28.7478965,47.189452 32.2655143,46.8180266 C36.229467,46.8180266 39.4443262,43.6062885 39.4443262,39.6392146 C39.4443262,35.675262 36.229467,32.4604027 32.2655143,32.4604027 C28.3015616,32.4604027 25.0867024,35.675262 25.0867024,39.6392146" fill="#FFFFFF"/>
            <path d="M28.8327937,39.6392146 C30.2092529,39.6392146 31.3297718,40.7566123 31.3297718,42.1361927 C31.3297718,43.5157731 30.2092529,44.6331708 28.8327937,44.6331708 C27.4532133,44.6331708 26.3358157,43.5157731 26.3358157,42.1361927 C26.3358157,40.7566123 27.4532133,39.6392146 28.8327937,39.6392146" fill="#FFFFFF"/>
            <path d="M33.8255014,94.2621704 C38.4792442,94.2621704 42.2528023,98.0326072 42.2528023,102.68635 C42.2528023,107.340093 38.4792442,111.113651 33.8255014,111.113651 C29.1717585,111.113651 25.3982004,107.340093 25.3982004,102.68635 C25.3982004,98.0326072 29.1717585,94.2621704 33.8255014,94.2621704" fill="#000000"/>
            <path d="M25.0867024,101.751232 L25.0867024,101.751232 C25.2583696,96.7541545 29.4470503,92.8432626 34.4441277,93.018051 C39.441205,93.1897183 43.3520969,97.3815202 43.1773084,102.375476 C43.0118836,107.250826 39.0135975,111.111778 34.1382479,111.1149 C29.4969899,111.470719 25.445643,107.999919 25.0898236,103.358661 C25.0867024,103.343055 25.0867024,103.327449 25.0867024,103.311843 C25.4113095,106.916855 28.601199,109.576137 32.2062111,109.248408 C32.2280596,109.245287 32.2436658,109.242166 32.2655143,109.242166 C36.229467,109.239045 39.441205,106.021064 39.4380838,102.057112 C39.4349626,98.093159 36.2169821,94.8814209 32.2499082,94.8845421 C28.4108044,94.8907846 25.2552484,97.9152493 25.0867024,101.751232" fill="#FFFFFF"/>
            <path d="M28.8327937,102.065227 C30.2092529,102.065227 31.3297718,103.179503 31.3297718,104.562205 C31.3297718,105.938664 30.2092529,107.059183 28.8327937,107.059183 C27.4532133,107.059183 26.3358157,105.938664 26.3358157,104.562205 C26.3358157,103.179503 27.4532133,102.065227 28.8327937,102.065227" fill="#FFFFFF"/>
          </g>
          <path d="M 251.586 70.366 C 265.631 70.366 276.865 75.984 281.546 94.087 L 266.568 98.144 C 263.447 87.844 258.765 83.787 251.586 83.787 C 244.407 83.787 234.419 87.22 234.419 108.132 C 234.419 129.048 244.407 134.039 252.21 134.039 C 260.029 134.245 266.693 128.398 267.501 120.617 L 254.395 120.617 L 254.395 108.445 L 282.798 108.445 L 282.798 145.587 L 269.689 145.587 L 269.689 135.29 L 269.377 135.29 C 265.947 142.819 258.29 147.513 250.025 147.148 C 227.865 147.148 217.877 130.608 217.877 108.445 C 217.877 85.347 230.674 70.366 251.586 70.366 Z M 421.068 91.279 C 432.926 91.279 441.044 99.082 444.165 107.509 L 430.744 111.879 C 428.559 105.012 425.438 102.828 420.756 102.828 C 416.074 102.828 410.144 108.446 410.144 119.058 C 410.144 129.667 413.265 135.288 420.441 135.288 C 427.623 135.288 428.559 133.103 431.056 125.925 L 444.477 130.606 C 441 140.785 431.184 147.414 420.441 146.834 C 407.956 146.834 394.226 139.658 394.226 119.058 C 394.226 97.834 409.208 91.279 421.068 91.279 Z M 374.875 74.11 L 374.875 92.528 L 388.608 92.528 L 388.608 104.077 L 374.875 104.077 L 374.875 127.171 C 374.875 132.789 376.435 134.665 382.366 134.665 L 387.669 134.04 L 387.669 145.589 L 377.06 146.525 C 361.138 146.213 358.957 140.592 358.957 130.607 L 358.957 104.077 L 349.905 104.077 L 349.905 92.528 L 358.641 92.528 L 358.641 74.11 L 374.875 74.11 Z M 312.449 71.615 L 312.449 145.588 L 296.531 145.588 L 296.531 71.615 L 312.449 71.615 Z M 341.476 92.527 L 341.476 145.588 L 325.558 145.588 L 325.558 92.527 L 341.476 92.527 Z M 468.82 71.615 L 468.82 100.642 C 473.112 94.759 479.957 91.278 487.239 91.278 C 496.29 91.278 502.845 95.648 502.845 106.885 L 502.845 145.588 L 486.611 145.588 L 486.611 111.878 C 486.611 107.197 484.742 104.7 480.369 104.7 C 476.006 105.015 471.904 106.9 468.82 110.006 L 468.82 145.588 L 452.593 145.588 L 452.593 71.615 L 468.82 71.615 Z M 341.789 72.239 L 341.789 85.036 L 325.558 85.036 L 325.558 72.239 L 341.789 72.239 Z" stroke="none" stroke-width="1" fill-rule="evenodd" style=""/>
          <text style="font-family: Arial, sans-serif; font-size: 67px; font-style: italic; font-weight: 700; white-space: pre;" transform="matrix(0.853587, 0, 0, 0.786885, 48.209714, 13.698486)" x="208.4" y="46.768">open with</text>
        </g>
      </g>
    </g>
  </g>
</svg>
